<?xml version="1.0" standalone="no"?>
<!DOCTYPE svg PUBLIC "-//W3C//DTD SVG 20010904//EN"
 "http://www.w3.org/TR/2001/REC-SVG-20010904/DTD/svg10.dtd">
<svg version="1.0" xmlns="http://www.w3.org/2000/svg"
 width="320.000000pt" height="320.000000pt" viewBox="0 0 320.000000 320.000000"
 preserveAspectRatio="xMidYMid meet">
<metadata>
Created by potrace 1.11, written by Peter Selinger 2001-2013
</metadata>
<g transform="translate(0.000000,320.000000) scale(0.100000,-0.100000)"
fill="#000000" stroke="none">
<path d="M1438 3185 c-2 -2 -26 -6 -53 -9 -67 -8 -117 -16 -135 -22 -8 -3 -26
-8 -40 -11 -24 -4 -122 -36 -208 -67 -171 -63 -390 -210 -539 -363 -75 -77
-213 -253 -213 -272 0 -6 -3 -11 -7 -11 -5 0 -13 -10 -18 -23 -6 -12 -23 -44
-37 -72 -41 -78 -90 -194 -103 -245 -1 -3 -4 -12 -8 -20 -7 -16 -27 -93 -33
-125 -2 -11 -6 -31 -9 -45 -20 -101 -25 -164 -25 -305 1 -107 6 -210 10 -210
1 0 3 -9 4 -20 9 -65 19 -110 43 -195 14 -52 29 -99 33 -105 4 -5 10 -22 14
-36 6 -29 77 -177 106 -224 11 -16 27 -45 36 -63 9 -17 20 -32 25 -32 5 0 9
-6 9 -12 0 -7 10 -25 23 -40 12 -14 38 -46 57 -69 74 -93 205 -214 299 -279
20 -14 37 -28 39 -32 2 -5 8 -8 12 -8 5 0 26 -12 47 -26 31 -21 172 -92 248
-125 26 -11 172 -58 199 -64 46 -9 68 -14 84 -19 71 -20 412 -29 517 -13 76
11 158 27 175 34 8 3 26 8 40 10 84 14 338 130 450 206 183 124 353 296 467
477 109 171 202 419 229 610 3 25 8 56 10 70 6 46 6 284 -1 335 -8 63 -13 102
-20 140 -9 47 -57 219 -65 230 -4 6 -10 22 -14 36 -6 29 -77 177 -106 224 -11
17 -27 45 -36 63 -9 17 -20 32 -25 32 -5 0 -9 6 -9 13 0 6 -10 24 -23 39 -12
14 -38 46 -57 70 -78 97 -219 223 -365 326 -39 27 -187 103 -285 145 -62 27
-211 67 -320 86 -92 16 -410 28 -422 16z"/>
</g>
</svg>
